<svg xmlns="http://www.w3.org/2000/svg" xml:space="preserve" style="fill-rule:evenodd;clip-rule:evenodd;stroke-linejoin:round;stroke-miterlimit:2" viewBox="0 0 280 287"><path d="M.2-50.9c6.3-7.2 13.7-9 23.8-9 19.2 0 34.7 16.4 34.7 36.6 0 13.2-3.6 26.2-10.4 37.5C40.7 27 14.5 52.8.1 60c-13.2-6.7-39.8-32.4-48.4-46-6.9-11.2-10.5-24.2-10.4-37.4C-58.7-43.7-43.1-60-24-60c10.1 0 17.8 1.9 24.2 9.1" style="fill:#d20a11" transform="translate(140.002 143.098)scale(2.38497)"/><path d="M39.5-9.1c.3.7.4 1.4.5 2.2s.1 1.6.1 2.5c0 1.3-.5 2.8-1.8 2.8-.7 0-1.1-1-1.1-1.7q-.3.3-.9.3c-.7 0-.9-.5-1-1.4 0-1.8.6-1.7.5-2.7-.4-2.2-1.8-4.1-3.8-5.1l.1 1.7c0 .1 0 .1-.1.1l-1 .9.9.8v.1l2.6 17.9v.1L37 12v.2h-9.3c-.1 0-.1 0-.1-.1l-1.2-3.8c0-.1-.1-.1-.2-.1l-.1.1-1.3 3.8c0 .1-.1.1-.1.1H15c-.1 0-.1-.1-.1-.1V12l2.2-2.7v-.1l3-17.9v-.1l.9-.7-1.1-.8-.1-.1-.1-1.7-3.4 6.3v.1c.1.3.1.7.1 1 0 1.3-1 2.4-2.3 2.4-1.1 0-2-.9-2-2 0-.3.1-.5.2-.8v-.1l-6.4-7.4c-.1-.1-.1-.1-.2 0v.1l-.4 2.2-1 .5 5.6 8v.2H4.6c-.1 0-.1.1-.1.2l4.9 12v.1l1.8 1.7h-8c-.1 0-.1 0-.1-.1l-3-6.7c-.1-.1-.1-.1-.2-.1 0 0-.1 0-.1.1l-3.4 6.6-.1.1h-9l2.1-1.7v-.1l6.1-12c0-.1 0-.2-.1-.2h-4.8c-.1 0-.1-.1-.1-.1v-.1l5.1-8-1-.4-.1-.1-.2-2.2c0-.1-.1-.1-.2-.1 0 0-.1 0-.1.1l-5.5 6.9v.1c0 .2.2.9.2 1 0 1.3-1 2.4-2.3 2.4-1.2 0-2.3-.9-2.3-2.2v-.7l-5.2-6.5.5 2.8-.9.2v.9h.9l2 17.1v.1l2.3 2.7v.2h-8.9c-.1 0-.1 0-.1-.1l-1.3-3.8c0-.1-.1-.1-.2-.1l-.1.1-1.2 3.8c0 .1-.1.1-.1.1h-8.7c-.1 0-.1-.1-.1-.1v-.1l2.1-2.7v-.1L-33-7.7h.9v-.9l-.9-.2.3-2.8c-1.7 1.3-2.9 3.3-3.3 5.4-.1 1 .5.9.5 2.7-.1.9-.3 1.4-1 1.4-.3 0-.6-.2-.9-.4 0 .7-.4 1.7-1.1 1.7-1.3 0-1.8-1.5-1.8-2.8 0-.8 0-1.6.1-2.5s.2-1.8.5-2.7c1.1-3.3 2.2-4.7 4.3-7.7v-.1l-.3-1.1v-.2l4.8-3.7v-.1l.3-1.2h1.1V-24c0-.1 0-.1-.1-.1-2.5-1-4.7-2.8-6.1-5.1-.3.1-.5.2-.8.2-1.3-.1-2.4-1.3-2.3-2.6 0-1.1.6-2.1 1.6-2.5v-.6c0-5.9 4.5-10.8 10.1-10.8S-17-40.7-17-34.7v1c.6.5 1 1.3.9 2.1.1 1.4-.9 2.5-2.2 2.7h-.2c-1.4 2.3-3.6 4.1-6.1 5v1.2h1l.3 1.3v.1l4.1 3.6v.2l-.4 1.1v.1l5.7 6.9c0 .1.1.1.2 0l5.5-7.5v-.1l-.4-1.6c0-.1 0-.1.1-.2l5.9-3.3.1-.1v-2.3c0-.1 0-.1-.1-.1-2.9-.8-5.4-2.8-6.8-5.5l-.1-.1h-2.9c-.1 0-.1-.1-.1-.1-.2-.8-.2-1.6-.2-2.5 0-6.9 5.5-12.6 12.4-12.9h.6C7.1-45.6 12-40 12-32.9c0 .6-.1 1.8-.2 2.5 0 .1-.1.1-.1.1H8.9c-.1 0-.1 0-.1.1-1.1 2.7-3.5 4.7-6.3 5.4-.1 0-.1.1-.1.1v2.2s0 .1.1.1l5.4 3.5c.1.1.1.2.1.3l-.4 1.4v.1l6.1 7.5c0 .1.1.1.2 0l4.9-7.8v-.1l-.3-1.2v-.2l4-3s.1-.1.1-.2l-.4-1.3h2v-1c-2.6-.5-4.9-2.1-6.3-4.3-.2.1-.5.2-.8.2-1.3-.1-2.4-1.3-2.3-2.6 0-.9.4-1.8 1.2-2.3l.1-.1c0-.4-.1-.8-.1-1.3 0-5.9 4.5-10.8 10.1-10.8s10.1 4.8 10.1 10.8c0 .4 0 .8-.1 1.2 0 .1 0 .1.1.1.8.5 1.3 1.4 1.3 2.4.1 1.3-.9 2.5-2.3 2.6-.3 0-.6-.1-.8-.2-1.5 2.1-3.7 3.7-6.2 4.3v1h2.3l-.5 1.3v.2l3.7 3s.1.1.1.2l-.3 1.2v.2c2.6 2.3 5.2 4.6 6 8.2m-76.4 32.4v-8.8h6v2.1h-3.6V18h3v2h-3v3.2h-2.4zm13-2.3v2.2h-6.3v-8.8h6.2v2.1h-3.7v1.2h3.2v2h-3.2V21zm3.7-6.5 1.6 3.6 1.6-3.6h2.6l-3 5.9v2.9h-2.4v-2.9l-3-5.8zm9.4 0h2.7l2.8 8.8h-2.4l-.5-1.7h-2.5l-.5 1.7h-2.4zm2.2 5.5-.8-3.1-.8 3.1zm3.7 3.3v-8.8h2.4v6.7h4v2.1zM8.3 21v2.2H2v-8.8h6.2v2.1H4.4v1.2h3.2v2H4.4V21zm4.6 2.3c-.6 0-1.1-.1-1.6-.3s-1-.5-1.4-.9-.7-.9-.9-1.4c-.2-.6-.4-1.3-.3-1.9 0-.6.1-1.2.3-1.7s.6-1 1-1.4.9-.7 1.4-.9q.9-.3 1.8-.3c.7 0 1.5.2 2.1.5s1.1.8 1.4 1.4L15 17.7c-.2-.4-.4-.6-.8-.8-.3-.2-.7-.3-1.1-.3-.3 0-.5.1-.8.2-.2.1-.4.3-.6.5s-.3.5-.3.7c-.2.6-.2 1.3 0 1.9.1.3.2.5.4.7s.4.4.6.5c.3.1.5.2.8.2.4 0 .8-.1 1.1-.3.4-.2.7-.5 1-.8v2.3c-.6.5-1.5.8-2.4.8m2.2-3h-1.6v-1.7h3.6v4.7h-2zm3.1 3.1v-8.9h4q.6 0 1.2.3c.4.2.7.4.9.7.3.3.5.6.6 1 .1.3.2.7.2 1.1 0 .3 0 .7-.2 1-.1.3-.2.6-.4.9s-.4.5-.7.7l1.8 3.2H23l-1.5-2.7h-1v2.7zm2.4-4.9h1.5c.1 0 .2 0 .3-.1s.2-.2.2-.3c.1-.2.1-.3.1-.5s0-.4-.1-.5l-.3-.3c-.1-.1-.2-.1-.3-.1h-1.5z" style="fill:#fff;fill-rule:nonzero" transform="translate(140.002 143.098)scale(2.38497)"/><path d="M26.4 23.3v-8.8h2.4v8.8zm1.9-9.2-1.5-.4.6-1.8h2.1zm3.7.4h2.7l2.8 8.8H35l-.5-1.7H32l-.4 1.7h-2.5zm2.2 5.5-.9-3.1-.8 3.1z" style="fill:#fff;fill-rule:nonzero" transform="translate(140.002 143.098)scale(2.38497)"/></svg>