<svg xmlns="http://www.w3.org/2000/svg" xml:space="preserve" style="fill-rule:evenodd;clip-rule:evenodd;stroke-linejoin:round;stroke-miterlimit:2;fill:currentColor;" viewBox="0 0 1072 781">
  <path d="M17.6 142.2h31.7v178.4H17.6zm81.2 43.9v15.7h.4c3.2-6.7 7.4-11.5 12.5-14.6s11-4.6 17.6-4.6c9.7 0 17.1 3 22.3 9s7.8 15.7 7.8 29.2v99.7H129v-92.7c0-7-1-11.9-3.1-14.6s-5.4-4.1-9.9-4.1c-10.7 0-16.1 7.4-16.1 22.2v89.2H69.8V186.1zm101 95c0 5.8 1.4 10.5 4.1 14.1s6.6 5.4 11.8 5.4c4.7 0 8.4-1.3 11.2-4q4.2-4.05 4.2-12 0-6.45-3.3-9.9c-2.2-2.2-4.8-4-7.7-5.4l-21.3-8.7q-12.6-4.95-18.9-14.1c-4.3-6.1-6.4-13.9-6.4-23.4q0-8.25 2.4-15.6c1.6-4.9 4.2-9.2 7.7-12.9q5.25-5.55 13.5-8.7c5.5-2.2 12.1-3.2 19.9-3.2 13.8 0 24 3.3 30.6 10q9.9 10.05 9.9 28.2v5.5h-27.3c0-7-1-12.1-3-15.4-2-3.2-5.5-4.9-10.5-4.9-3.8 0-7.2 1.2-10 3.6-2.9 2.4-4.3 6-4.3 10.9 0 3.3.9 6.3 2.8 9 1.8 2.7 5.3 4.9 10.5 6.7l18.3 7c9.5 3.7 16.3 8.5 20.2 14.4 4 5.9 5.9 14 5.9 24.1q0 10.8-3.3 18.6c-2.2 5.2-5.2 9.6-9.1 13.1s-8.5 6-13.9 7.5-11.3 2.2-17.7 2.2c-8.5 0-15.6-.9-21.2-2.7s-10.1-4.6-13.4-8.2c-3.3-3.7-5.6-8.1-6.9-13.4-1.3-5.2-2-11.1-2-17.6v-4.7h27.3v4.5zm110.3-133.4v38.5h17.6v23.5h-17.6v72.7q0 7.95 2.1 11.4c1.4 2.2 4.3 3.4 8.7 3.4 1.2 0 2.3 0 3.5-.1s2.3-.2 3.3-.4v24c-3.4 0-6.6.1-9.8.4-3.2.2-6.5.4-10 .4-5.9 0-10.7-.5-14.4-1.4s-6.6-2.7-8.6-5.5c-2-2.7-3.3-6.4-4.1-10.9-.7-4.5-1.1-10.2-1.1-17v-76.9h-15.4v-23.5h15.4v-38.5h30.4zm57.5-7.5v29.5h-30.4v-29.5zm0 45.9v134.4h-30.4V186.1zm56.1-38.4v38.5h17.6v23.5h-17.6v72.7q0 7.95 2.1 11.4c1.4 2.2 4.3 3.4 8.7 3.4 1.2 0 2.3 0 3.5-.1s2.3-.2 3.3-.4v24c-3.4 0-6.6.1-9.8.4-3.2.2-6.5.4-10 .4-5.9 0-10.7-.5-14.4-1.4s-6.6-2.7-8.6-5.5c-2-2.7-3.3-6.4-4.1-10.9-.7-4.5-1.1-10.2-1.1-17v-76.9h-15.4v-23.5h15.4v-38.5h30.4zM510 304.8c-3.2 6.7-7.4 11.4-12.5 14.2s-11 4.2-17.6 4.2c-9.7 0-17.1-2.9-22.3-8.6s-7.8-15.4-7.8-28.9V186H480v92.7c0 7 1 11.9 3.1 14.6s5.4 4.1 9.9 4.1c10.7 0 16.1-7.4 16.1-22.2V186h30.4v134.4h-29.1v-15.7h-.4zm84.5-157.1v38.5h17.6v23.5h-17.6v72.7q0 7.95 2.1 11.4c1.4 2.2 4.3 3.4 8.7 3.4 1.2 0 2.3 0 3.5-.1s2.3-.2 3.3-.4v24c-3.4 0-6.6.1-9.8.4-3.2.2-6.5.4-10 .4-5.9 0-10.7-.5-14.4-1.4s-6.6-2.7-8.6-5.5c-2-2.7-3.3-6.4-4.1-10.9-.7-4.5-1.1-10.2-1.1-17v-76.9h-15.4v-23.5h15.4v-38.5h30.4zm24.4 75.2c1.6-8.8 4.3-16.2 7.9-22.1q5.55-8.85 14.4-13.5c5.9-3.1 13.2-4.6 21.9-4.6 9.1-.2 16.7 1.2 22.7 4.1s10.8 7.4 14.3 13.4q5.25 9 7.5 22.2c1.5 8.8 2.2 19.2 2.2 31 0 11.5-.8 21.7-2.4 30.5s-4.3 16.2-7.9 22.1c-3.7 5.9-8.5 10.3-14.4 13.1q-8.85 4.2-21.9 4.2c-9.1.2-16.7-1.1-22.7-3.9-6-2.7-10.8-7.1-14.3-13q-5.25-8.85-7.5-22.2c-1.5-8.9-2.2-19.2-2.2-30.9 0-11.4.8-21.6 2.4-30.4m28.4 49.4q.45 8.7 2.1 15c1.1 4.2 2.8 7.4 5 9.7s5.1 3.5 8.8 3.5c6.2 0 10.4-3.7 12.8-11 2.3-7.3 3.5-19.4 3.5-36.2s-1.2-28.9-3.5-36.2-6.6-11-12.8-11c-3.7 0-6.6 1.2-8.8 3.5s-3.9 5.6-5 9.7q-1.65 6.3-2.1 15c-.3 5.8-.4 12.2-.4 19 0 6.9.1 13.2.4 19M45.8 465.9c0 4.5.3 8.6.8 12.4.5 3.7 1.5 7 2.9 9.7s3.3 4.9 5.7 6.5 5.5 2.4 9.1 2.4c3.8 0 6.9-.8 9.2-2.4s4.2-3.7 5.6-6.5c1.4-2.7 2.3-6 2.9-9.7.5-3.7.8-7.9.8-12.4V341.5h31.7v124.4c0 11.3-1.4 20.7-4.2 28.1s-6.5 13.3-11.2 17.6-10.1 7.2-16.1 8.7-12.3 2.2-18.7 2.2c-6.5 0-12.7-.7-18.7-2s-11.4-4-16.1-8.1-8.4-9.9-11.2-17.4-4.2-17.2-4.2-29.2V341.5h31.7zm114.6-80.5v15.7h.4c3.2-6.7 7.4-11.5 12.5-14.6s11-4.6 17.6-4.6c9.7 0 17.1 3 22.3 9s7.8 15.7 7.8 29.2v99.7h-30.4v-92.7c0-7-1-11.9-3.1-14.6s-5.4-4.1-9.9-4.1c-10.7 0-16.1 7.4-16.1 22.2v89.2h-30.4V385.4zm110.3-45.9V369h-30.4v-29.5zm0 45.9v134.4h-30.4V385.4zm105.7 0-29.7 134.4h-35.2l-30.6-134.4h31.7l16.9 96.2h.4l16.1-96.2zm35 83.2c0 4 .3 7.9.8 11.6s1.4 7.1 2.5 10c1.2 2.9 2.7 5.2 4.6 7 1.9 1.7 4.3 2.6 7 2.6 5.1 0 8.9-2.1 11.2-6.2 2.3-4.2 4-10.5 4.8-19h27.3c-.6 15.7-4.3 27.6-11 35.7-6.7 8.2-17.4 12.2-31.9 12.2-11 0-19.6-2.1-25.8-6.2-6.2-4.2-10.7-9.7-13.6-16.5s-4.7-14.5-5.4-23-1-17-1-25.5c0-9 .6-17.7 1.7-26q1.65-12.45 6.6-22.2c3.3-6.5 8-11.7 14.2-15.5s14.4-5.7 24.7-5.7c8.8 0 16 1.6 21.7 4.9 5.6 3.2 10.1 7.8 13.3 13.7s5.4 13.1 6.6 21.5 1.8 17.8 1.8 28.1v7.7h-60.1zm30.1-44.8c-.4-3.9-1.2-7.2-2.3-10-1.1-2.7-2.6-4.8-4.6-6.2s-4.5-2.1-7.6-2.1-5.6.8-7.6 2.4-3.6 3.7-4.7 6.2c-1.2 2.6-2 5.5-2.5 8.6-.5 3.2-.8 6.3-.8 9.5v5.2h31c-.2-5.2-.5-9.7-.9-13.6m72.6-38.4v18h.4c3.1-6.5 6.8-11.7 11.2-15.6s9.8-5.9 16.1-5.9c.9 0 1.8 0 2.8.1s1.9.2 2.8.4v33c-1.6-.2-3.2-.3-4.7-.4s-3.1-.1-4.7-.1c-2.6 0-5.3.4-7.9 1.2s-5.1 2.2-7.3 4.1-4 4.4-5.3 7.5-2 6.9-2 11.4v80.7h-30.4V385.4zm64.3 95c0 5.8 1.4 10.5 4.1 14.1s6.6 5.4 11.8 5.4c4.7 0 8.4-1.3 11.2-4q4.2-4.05 4.2-12 0-6.45-3.3-9.9c-2.2-2.2-4.8-4-7.7-5.4l-21.3-8.7q-12.6-4.95-18.9-14.1c-4.3-6.1-6.4-13.9-6.4-23.4q0-8.25 2.4-15.6c1.6-4.9 4.2-9.2 7.7-12.9q5.25-5.55 13.5-8.7c5.5-2.2 12.1-3.2 19.9-3.2 13.8 0 24 3.3 30.6 10q9.9 10.05 9.9 28.2v5.5h-27.3c0-7-1-12.1-3-15.4-2-3.2-5.5-4.9-10.5-4.9-3.8 0-7.2 1.2-10 3.6-2.9 2.4-4.3 6-4.3 10.9 0 3.3.9 6.3 2.8 9 1.8 2.7 5.3 4.9 10.5 6.7l18.3 7c9.5 3.7 16.3 8.5 20.2 14.4 4 5.9 5.9 14 5.9 24.1q0 10.8-3.3 18.6c-2.2 5.2-5.2 9.6-9.1 13.1s-8.5 6-13.9 7.5-11.3 2.2-17.7 2.2c-8.5 0-15.6-.9-21.2-2.7s-10.1-4.6-13.4-8.2c-3.3-3.7-5.6-8.1-6.9-13.4-1.3-5.2-2-11.1-2-17.6v-4.7h27.3v4.5zm104.8-140.9V369h-30.4v-29.5zm0 45.9v134.4h-30.4V385.4zm56.1-38.4v38.5h17.6V409h-17.6v72.7q0 7.95 2.1 11.4c1.4 2.2 4.3 3.4 8.7 3.4 1.2 0 2.3 0 3.5-.1s2.3-.2 3.3-.4v24c-3.4 0-6.6.1-9.8.4-3.2.2-6.5.4-10 .4-5.9 0-10.7-.5-14.4-1.4s-6.6-2.7-8.6-5.5c-2-2.7-3.3-6.4-4.1-10.9-.7-4.5-1.1-10.2-1.1-17v-76.9h-15.4v-23.5h15.4V347zm25.7 76.4c0-7.8 1.1-14.4 3.3-19.6s5.2-9.5 8.9-12.7 8.1-5.6 13.2-7q7.65-2.1 16.2-2.1c9.1 0 16.4 1 22 3s9.9 4.8 13 8.5 5.2 8 6.3 13.1 1.6 10.6 1.6 16.6v70.7c0 6.3.3 11.2.8 14.7s1.5 7.2 3 11.2h-29.1c-1-2.2-1.8-4.5-2.3-6.9s-1-4.8-1.4-7.1h-.4c-3.5 7-7.6 11.5-12.2 13.6s-10.6 3.1-17.9 3.1c-5.3 0-9.8-1-13.4-3.1-3.7-2.1-6.6-5-8.8-8.6-2.2-3.7-3.8-7.8-4.8-12.4s-1.5-9.1-1.5-13.6c0-6.3.6-11.8 1.8-16.4q1.8-6.9 5.4-11.7c2.4-3.2 5.5-6 9.2-8.1 3.7-2.2 8.3-4.1 13.5-5.7l17.2-5.2c4.5-1.3 7.7-3.2 9.5-5.5s2.6-5.7 2.6-10.2c0-5.2-1.1-9.2-3.2-12.1s-5.8-4.4-10.9-4.4c-4.7 0-8.2 1.6-10.6 4.7-2.3 3.2-3.5 7.4-3.5 12.7v3.7H765zm48.9 33.6c-2.3 1.1-4.5 1.9-6.4 2.4q-9.3 2.25-13.2 7.5c-2.6 3.5-4 8.2-4 14.2 0 5.2.9 9.6 2.6 13.2 1.8 3.7 4.7 5.5 8.8 5.5 2.1 0 4.2-.4 6.4-1.1s4.2-2 6.1-3.6c1.8-1.7 3.3-3.8 4.5-6.5s1.8-5.8 1.8-9.5v-26.5c-2.1 1.9-4.2 3.3-6.6 4.4m84.1-71.6v18h.4c3.1-6.5 6.8-11.7 11.2-15.6s9.8-5.9 16.1-5.9c.9 0 1.8 0 2.8.1s1.9.2 2.8.4v33c-1.6-.2-3.2-.3-4.7-.4s-3.1-.1-4.7-.1c-2.6 0-5.3.4-7.9 1.2s-5.1 2.2-7.3 4.1-4 4.4-5.3 7.5-2 6.9-2 11.4v80.7H869V385.4zm73.5-45.9V369h-30.4v-29.5zm0 45.9v134.4h-30.4V385.4zm17.6 36.8c1.6-8.8 4.3-16.2 7.9-22.1q5.55-8.85 14.4-13.5c5.9-3.1 13.2-4.6 21.9-4.6 9.1-.2 16.7 1.2 22.7 4.1s10.8 7.4 14.3 13.4q5.25 9 7.5 22.2c1.5 8.8 2.2 19.2 2.2 31 0 11.5-.8 21.7-2.4 30.5s-4.3 16.2-7.9 22.1c-3.7 5.9-8.5 10.3-14.4 13.1q-8.85 4.2-21.9 4.2c-9.1.2-16.7-1.1-22.7-3.9-6-2.7-10.8-7.1-14.3-13q-5.25-8.85-7.5-22.2c-1.5-8.9-2.2-19.2-2.2-30.9 0-11.4.8-21.6 2.4-30.4m28.4 49.4q.45 8.7 2.1 15c1.1 4.2 2.8 7.4 5 9.7s5.1 3.5 8.8 3.5c6.2 0 10.4-3.7 12.8-11 2.3-7.3 3.5-19.4 3.5-36.2s-1.2-28.9-3.5-36.2-6.6-11-12.8-11c-3.7 0-6.6 1.2-8.8 3.5s-3.9 5.6-5 9.7q-1.65 6.3-2.1 15c-.3 5.8-.4 12.2-.4 19 0 6.9.1 13.2.4 19M97.3 669.2c0 19-3.9 32.5-11.7 40.6s-19.7 12.1-35.7 12.1c-8.4 0-15.2-1.3-20.6-3.9s-9.6-6.2-12.8-11-5.3-10.3-6.5-16.6-1.8-13-1.8-20v-7.7h29.1v5.5c0 9.5.9 16.5 2.8 21.1 1.8 4.6 5.6 6.9 11.3 6.9s9.5-2.3 11.3-6.9 2.8-11.6 2.8-21.1V540.8h31.7v128.4zm43.6-1.3c0 4 .3 7.9.8 11.6s1.4 7.1 2.5 10c1.2 2.9 2.7 5.2 4.6 7 1.9 1.7 4.3 2.6 7 2.6 5.1 0 8.9-2.1 11.2-6.2 2.3-4.2 4-10.5 4.8-19h27.3c-.6 15.7-4.3 27.6-11 35.7-6.7 8.2-17.4 12.2-31.9 12.2-11 0-19.6-2.1-25.8-6.2-6.2-4.2-10.7-9.7-13.6-16.5s-4.7-14.5-5.4-23-1-17-1-25.5c0-9 .6-17.7 1.7-26q1.65-12.45 6.6-22.2c3.3-6.5 8-11.7 14.2-15.5s14.4-5.7 24.7-5.7c8.8 0 16 1.6 21.7 4.9 5.6 3.2 10.1 7.8 13.3 13.7s5.4 13.1 6.6 21.5 1.8 17.8 1.8 28.1v7.7h-60.1zm30.1-44.8c-.4-3.9-1.2-7.2-2.3-10-1.1-2.7-2.6-4.8-4.6-6.2s-4.5-2.1-7.6-2.1-5.6.8-7.6 2.4-3.6 3.7-4.7 6.2c-1.2 2.6-2 5.5-2.5 8.6-.5 3.2-.8 6.3-.8 9.5v5.2h31c-.2-5.2-.5-9.7-.9-13.6m65.8 56.6c0 5.8 1.4 10.5 4.1 14.1s6.6 5.4 11.8 5.4c4.7 0 8.4-1.3 11.2-4q4.2-4.05 4.2-12 0-6.45-3.3-9.9c-2.2-2.2-4.8-4-7.7-5.4l-21.3-8.7q-12.6-4.95-18.9-14.1c-4.3-6.1-6.4-13.9-6.4-23.4q0-8.25 2.4-15.6c1.6-4.9 4.2-9.2 7.7-12.9q5.25-5.55 13.5-8.7c5.5-2.2 12.1-3.2 19.9-3.2 13.8 0 24 3.3 30.6 10q9.9 10.05 9.9 28.2v5.5h-27.3c0-7-1-12.1-3-15.4-2-3.2-5.5-4.9-10.5-4.9-3.8 0-7.2 1.2-10 3.6-2.9 2.4-4.3 6-4.3 10.9 0 3.3.9 6.3 2.8 9 1.8 2.7 5.3 4.9 10.5 6.7l18.3 7c9.5 3.7 16.3 8.5 20.2 14.4 4 5.9 5.9 14 5.9 24.1q0 10.8-3.3 18.6c-3.3 7.8-5.2 9.6-9.1 13.1s-8.5 6-13.9 7.5-11.3 2.2-17.7 2.2c-8.5 0-15.6-.9-21.2-2.7s-10.1-4.6-13.4-8.2c-3.3-3.7-5.6-8.1-6.9-13.4-1.3-5.2-2-11.1-2-17.6v-4.7h27.3v4.5zm133.6 23.7c-3.2 6.7-7.4 11.4-12.5 14.2s-11 4.2-17.6 4.2c-9.7 0-17.1-2.9-22.3-8.6s-7.8-15.4-7.8-28.9v-99.7h30.4v92.7c0 7 1 11.9 3.1 14.6s5.4 4.1 9.9 4.1c10.7 0 16.1-7.4 16.1-22.2v-89.2h30.4V719H371v-15.7h-.6zM383 533l-21.6 36h-20.7l11.9-36zm57.2 146.7c0 5.8 1.4 10.5 4.1 14.1s6.6 5.4 11.8 5.4c4.7 0 8.4-1.3 11.2-4q4.2-4.05 4.2-12 0-6.45-3.3-9.9c-2.2-2.2-4.8-4-7.7-5.4l-21.3-8.7q-12.6-4.95-18.9-14.1c-4.3-6.1-6.4-13.9-6.4-23.4q0-8.25 2.4-15.6c1.6-4.9 4.2-9.2 7.7-12.9q5.25-5.55 13.5-8.7c5.5-2.2 12.1-3.2 19.9-3.2 13.8 0 24 3.3 30.6 10q9.9 10.05 9.9 28.2v5.5h-27.3c0-7-1-12.1-3-15.4-2-3.2-5.5-4.9-10.5-4.9-3.8 0-7.2 1.2-10 3.6-2.9 2.4-4.3 6-4.3 10.9 0 3.3.9 6.3 2.8 9 1.8 2.7 5.3 4.9 10.5 6.7l18.3 7c9.5 3.7 16.3 8.5 20.2 14.4 4 5.9 5.9 14 5.9 24.1q0 10.8-3.3 18.6c-3.3 7.8-5.2 9.6-9.1 13.1s-8.5 6-13.9 7.5-11.3 2.2-17.7 2.2c-8.5 0-15.6-.9-21.2-2.7s-10.1-4.6-13.4-8.2c-3.3-3.7-5.6-8.1-6.9-13.4-1.3-5.2-2-11.1-2-17.6v-4.7h27.3v4.5zM14.4 791.9c1.1-11.4 3.5-21.2 7.3-29.4 3.7-8.2 9.1-14.5 16.2-19.1 7-4.6 16.5-6.9 28.4-6.9s21.4 2.3 28.4 6.9 12.4 11 16.2 19.1c3.7 8.2 6.2 17.9 7.3 29.4 1.1 11.4 1.7 23.9 1.7 37.4 0 13.7-.5 26.2-1.7 37.5-1.1 11.3-3.5 21.1-7.3 29.2-3.7 8.2-9.1 14.4-16.2 18.7-7 4.3-16.5 6.5-28.4 6.5S45 919 37.9 914.7c-7-4.3-12.4-10.6-16.2-18.7-3.7-8.2-6.2-17.9-7.3-29.2s-1.7-23.8-1.7-37.5c.1-13.6.6-26 1.7-37.4m30.8 67.9c.5 8.4 1.5 15.2 3.1 20.5 1.5 5.2 3.7 9.1 6.6 11.5s6.6 3.6 11.3 3.6 8.5-1.2 11.3-3.6c2.9-2.4 5.1-6.2 6.6-11.5 1.5-5.2 2.6-12.1 3.1-20.5s.8-18.6.8-30.6-.3-22.2-.8-30.5-1.5-15.2-3.1-20.5c-1.5-5.3-3.7-9.2-6.6-11.6s-6.6-3.6-11.3-3.6-8.5 1.2-11.3 3.6c-2.9 2.4-5.1 6.3-6.6 11.6s-2.6 12.2-3.1 20.5-.8 18.5-.8 30.5.3 22.2.8 30.6M165.7 740v56.5h.4c3.2-5.3 6.9-9.3 10.9-12s8.9-4 14.6-4c12.5 0 21.6 5.5 27.5 16.6s8.8 29.1 8.8 54.1-2.9 42.9-8.8 53.7-15 16.2-27.5 16.2c-6.2 0-11.3-1.2-15.5-3.7s-8-6.9-11.3-13.2h-.4v14.2h-29.1V740zm3 144.3c2 7.4 6.3 11.1 13.1 11.1q9.9 0 12.9-11.1c2-7.4 3-18.4 3-33.1s-1-25.7-3-33.1q-3-11.1-12.9-11.1c-6.7 0-11.1 3.7-13.1 11.1s-3 18.4-3 33.1 1 25.7 3 33.1M272.3 784v18h.4c3.1-6.5 6.8-11.7 11.2-15.6s9.8-5.9 16.1-5.9c.9 0 1.8 0 2.8.1s1.9.2 2.8.4v33c-1.6-.2-3.2-.3-4.7-.4s-3.1-.1-4.7-.1c-2.6 0-5.3.4-7.9 1.2s-5.1 2.2-7.3 4.1-4 4.4-5.3 7.5-2 6.9-2 11.4v80.7h-30.4V784zm68 83.2c0 4 .3 7.9.8 11.6s1.4 7.1 2.5 10c1.2 2.9 2.7 5.2 4.6 7 1.9 1.7 4.3 2.6 7 2.6 5.1 0 8.9-2.1 11.2-6.2 2.3-4.2 4-10.5 4.8-19h27.3c-.6 15.7-4.3 27.6-11 35.7-6.7 8.2-17.4 12.2-31.9 12.2-11 0-19.6-2.1-25.8-6.2-6.2-4.2-10.7-9.7-13.6-16.5s-4.7-14.5-5.4-23-1-17-1-25.5c0-9 .6-17.7 1.7-26q1.65-12.45 6.6-22.2c3.3-6.5 8-11.7 14.2-15.5s14.4-5.7 24.7-5.7c8.8 0 16 1.6 21.7 4.9 5.6 3.2 10.1 7.8 13.3 13.7s5.4 13.1 6.6 21.5 1.8 17.8 1.8 28.1v7.7h-60.1zm30.1-44.8c-.4-3.9-1.2-7.2-2.3-10-1.1-2.7-2.6-4.8-4.6-6.2s-4.5-2.1-7.6-2.1-5.6.8-7.6 2.4-3.6 3.7-4.7 6.2c-1.2 2.6-2 5.5-2.5 8.6-.5 3.2-.8 6.3-.8 9.5v5.2h31c-.2-5.2-.4-9.7-.9-13.6M443 784v18h.4c3.1-6.5 6.8-11.7 11.2-15.6s9.8-5.9 16.1-5.9c.9 0 1.8 0 2.8.1s1.9.2 2.8.4v33c-1.6-.2-3.2-.3-4.7-.4s-3.1-.1-4.7-.1c-2.6 0-5.3.4-7.9 1.2s-5.1 2.2-7.3 4.1-4 4.4-5.3 7.5-2 6.9-2 11.4v80.7H414V784zm40.5 36.7c1.6-8.8 4.3-16.2 7.9-22.1q5.55-8.85 14.4-13.5c5.9-3.1 13.2-4.6 21.9-4.6 9.1-.2 16.7 1.2 22.7 4.1s10.8 7.4 14.3 13.4q5.25 9 7.5 22.2c1.5 8.8 2.2 19.2 2.2 31 0 11.5-.8 21.7-2.4 30.5s-4.3 16.2-7.9 22.1c-3.7 5.9-8.5 10.3-14.4 13.1q-8.85 4.2-21.9 4.2c-9.1.2-16.7-1.1-22.7-3.9-6-2.7-10.8-7.1-14.3-13q-5.25-8.85-7.5-22.2c-1.5-8.9-2.2-19.2-2.2-30.9 0-11.4.8-21.5 2.4-30.4m28.4 49.5q.45 8.7 2.1 15c1.1 4.2 2.8 7.4 5 9.7s5.1 3.5 8.8 3.5c6.2 0 10.4-3.7 12.8-11 2.3-7.3 3.5-19.4 3.5-36.2s-1.2-28.9-3.5-36.2-6.6-11-12.8-11c-3.7 0-6.6 1.2-8.8 3.5s-3.9 5.6-5 9.7q-1.65 6.3-2.1 15c-.3 5.8-.4 12.2-.4 19 0 6.9.1 13.2.4 19" style="fill:currentColor;fill-rule:nonzero" transform="translate(-8.2 -140.2)"/>
</svg>