<svg xmlns="http://www.w3.org/2000/svg" xml:space="preserve" style="fill-rule:evenodd;clip-rule:evenodd;stroke-linejoin:round;stroke-miterlimit:2" viewBox="0 0 928 380"><path d="M1006.468 285.624c72.979 0 132.229 62.332 132.229 139.108s-59.25 139.108-132.229 139.108S874.24 501.508 874.24 424.732s59.249-139.108 132.228-139.108m-.003 50.166c-46.714 0-84.64 39.854-84.64 88.944 0 49.089 37.926 88.943 84.64 88.943s84.64-39.854 84.64-88.943c0-49.09-37.926-88.944-84.64-88.944" style="fill:currentColor;stroke:currentColor;stroke-width:1" transform="matrix(1.2186 0 0 1.18407 -460.605 -338.2)"/><path d="M356 258v48.999l-33.999.001L322 520h34.001v49.996L229 570v-50h34V307l-34 .001V258zm22 0h120.997l.002 49.004h-27.998v162.998s3.084 49.42 52.702 49.702c50.552.288 50.89-51.889 50.89-51.889l.453-160.794-27.912-.123-.185-48.898h121.047v48.948h-33.874v173.15c.187-6.553 1.906 92.811-109.005 96.503-110.706 3.684-113.504-102.803-113.513-100.486l.429-169.047h-34.024zm326.995-1.01L705 305h35.002s.714 194.829-1.291 239.919c-.735 16.516-17.842 28.639-37.312 31.775l-.383 50.362 44.447-11.282s43.633-14.308 48.333-61.901l.211-250.886 33.029.062-.042-46.065z" style="fill:currentColor;stroke:currentColor;stroke-width:1" transform="translate(-229 -247.267)"/></svg>