<svg xmlns="http://www.w3.org/2000/svg" xml:space="preserve" style="fill-rule:evenodd;clip-rule:evenodd;stroke-linejoin:round;stroke-miterlimit:2" viewBox="0 0 893 321"><path d="m908.349 1896.059-34.08.096v49.279h129.563v-49.358h-37.371v-79.679h82.969v-49.711h-82.734v-73.215h83.322v42.308h53.295v-94.31H878.556v47.008h30.261z" style="fill:currentColor" transform="translate(-211.023 -1636.04)"/><path d="M356 258v48.999l-33.999.001L322 520h34.001v49.996L229 570v-50h34V307l-34 .001V258zm22 0h120.997l.002 49.004h-27.998v162.998s3.084 49.42 52.702 49.702c50.552.288 50.89-51.889 50.89-51.889l.453-160.794-27.912-.123-.185-48.898h121.047v48.948h-33.874v173.15c.187-6.553 1.906 92.811-109.005 96.503-110.706 3.684-113.504-102.803-113.513-100.486l.429-169.047h-34.024z" style="fill:currentColor" transform="translate(-229 -255.888)"/><path d="M708.512 1867.59c-.29.31 9.037 34.644 54.682 31.469 61.242-4.26 34.911-64.767 35.491-60.405-9.167-18.098-55.469-27.735-103.888-48.184-48.418-20.448-35.022-87.22-34.08-92.37.733-4.015 18.333-50.534 63.695-59.947s75.061 15.692 75.061 15.692v-9.637h43.952v76.858h-53.354v-9.166c3.137 2.464-27.527-49.024-66.751-17.863-34.245 27.204 11.831 58.981 35.491 66.281 7.764 2.396 53.291 17.421 74.272 33.835 3.24 2.534 54.53 51.156 6.582 120.351s-134.443 19.249-134.443 19.249v11.165h-48.653v-90.491h51.943z" style="fill:currentColor" transform="translate(-211.023 -1636.04)"/></svg>