<svg xmlns="http://www.w3.org/2000/svg" xml:space="preserve" style="fill-rule:evenodd;clip-rule:evenodd;stroke-linejoin:round;stroke-miterlimit:2;fill:currentColor;" viewBox="0 0 1065 520">
  <path d="M17.2 247h28.3v159.2H17.2zm72.5 39.2v14.1h.3c2.9-5.9 6.6-10.3 11.2-13s9.8-4.1 15.7-4.1c8.6 0 15.3 2.7 19.9 8 4.6 5.4 7 14.1 7 26.1v89h-27.1v-82.7c0-6.2-.9-10.6-2.8-13-1.8-2.5-4.8-3.7-8.8-3.7-9.6 0-14.3 6.6-14.3 19.8v79.6H63.7v-120h26zm90.1 84.8q0 7.8 3.6 12.6t10.5 4.8c4.2 0 7.5-1.2 10-3.6s3.7-5.9 3.7-10.7c0-3.9-1-6.8-2.9-8.8q-3-3-6.9-4.8l-19.1-7.8c-7.5-3-13.1-7.2-16.9-12.6s-5.7-12.4-5.7-20.9c0-4.9.7-9.6 2.2-13.9 1.4-4.4 3.7-8.2 6.9-11.5 3.1-3.3 7.2-5.9 12.1-7.8s10.8-2.9 17.8-2.9c12.3 0 21.4 3 27.3 8.9s8.8 14.3 8.8 25.2v4.9H207c0-6.2-.9-10.8-2.7-13.7s-4.9-4.3-9.3-4.3c-3.4 0-6.4 1.1-8.9 3.2-2.6 2.2-3.8 5.4-3.8 9.7 0 3 .8 5.7 2.5 8q2.4 3.6 9.3 6l16.3 6.2c8.5 3.3 14.5 7.5 18.1 12.8 3.5 5.3 5.3 12.5 5.3 21.5 0 6.4-1 11.9-2.9 16.6-2 4.7-4.7 8.6-8.2 11.7s-7.6 5.4-12.4 6.7-10.1 2-15.8 2c-7.6 0-13.9-.8-19-2.5-5-1.6-9-4.1-12-7.4-2.9-3.3-5-7.2-6.2-11.9s-1.8-9.9-1.8-15.7v-4.2h24.4v4.2zm98.5-119.2v34.4H294v21h-15.7v64.9c0 4.8.6 8.1 1.9 10.1q1.8 3 7.8 3c1 0 2.1 0 3.1-.1s2-.2 2.9-.3v21.4q-4.5 0-8.7.3c-2.8.2-5.8.3-8.9.3q-7.8 0-12.9-1.2c-3.3-.8-5.9-2.5-7.7-4.9-1.8-2.5-3-5.7-3.6-9.7-.7-4-1-9.1-1-15.2v-68.7h-13.8v-21h13.8v-34.3zm51.3-6.6v26.3h-27.1v-26.3zm0 41v120h-27.1v-120zm50.1-34.4v34.4h15.7v21h-15.7v64.9c0 4.8.6 8.1 1.9 10.1q1.8 3 7.8 3c1 0 2.1 0 3.1-.1s2-.2 2.9-.3v21.4q-4.5 0-8.7.3c-2.8.2-5.8.3-8.9.3q-7.8 0-12.9-1.2c-3.3-.8-5.9-2.5-7.7-4.9-1.8-2.5-3-5.7-3.6-9.7-.7-4-1-9.1-1-15.2v-68.7h-13.8v-21h13.8v-34.3zm77 140.4c-2.9 5.9-6.6 10.2-11.2 12.7s-9.8 3.8-15.7 3.8c-8.6 0-15.3-2.6-19.9-7.7-4.7-5.1-7-13.7-7-25.8v-89H430V369c0 6.2.9 10.6 2.8 13 1.8 2.5 4.8 3.7 8.8 3.7 9.6 0 14.3-6.6 14.3-19.8v-79.6H483v120h-25.9v-14.1zm75.4-140.4v34.4h15.7v21h-15.7v64.9c0 4.8.6 8.1 1.9 10.1q1.8 3 7.8 3c1 0 2.1 0 3.1-.1s2-.2 2.9-.3v21.4q-4.5 0-8.7.3c-2.8.2-5.8.3-8.9.3q-7.8 0-12.9-1.2c-3.3-.8-5.9-2.5-7.7-4.9-1.8-2.5-3-5.7-3.6-9.7-.7-4-1-9.1-1-15.2v-68.7h-13.8v-21H505v-34.3zm21.8 67.2c1.4-7.9 3.8-14.5 7.1-19.7q4.95-7.95 12.9-12c5.3-2.7 11.8-4.1 19.6-4.1 8.1-.1 14.9 1.1 20.2 3.7 5.4 2.6 9.6 6.6 12.8 11.9 3.1 5.4 5.4 12 6.7 19.8 1.3 7.9 2 17.1 2 27.7 0 10.3-.7 19.3-2.2 27.2-1.4 7.9-3.8 14.5-7.1 19.7q-4.95 7.95-12.9 11.7c-5.3 2.5-11.8 3.8-19.5 3.8-8.1.1-14.9-1-20.2-3.5-5.4-2.5-9.6-6.3-12.8-11.6-3.1-5.3-5.4-11.9-6.7-19.8-1.3-8-2-17.1-2-27.5s.7-19.4 2.1-27.3m25.4 44.2c.3 5.2.9 9.7 1.9 13.4s2.5 6.6 4.4 8.7c2 2.1 4.6 3.1 7.9 3.1 5.5 0 9.3-3.3 11.4-9.8s3.1-17.3 3.1-32.3-1.1-25.8-3.1-32.3c-2.1-6.5-5.9-9.8-11.4-9.8-3.3 0-5.9 1-7.9 3.1s-3.4 5-4.4 8.7-1.6 8.2-1.9 13.4-.4 10.9-.4 17c0 5.9.1 11.6.4 16.8m-537 172.7c0 4 .2 7.7.7 11s1.3 6.2 2.6 8.7c1.2 2.5 2.9 4.4 5.1 5.8s4.9 2.1 8.2 2.1c3.4 0 6.2-.7 8.3-2.1s3.8-3.3 5-5.8 2.1-5.4 2.6-8.7.7-7 .7-11v-111h28.3V536c0 10.1-1.2 18.5-3.7 25.1s-5.8 11.9-10 15.7c-4.2 3.9-9 6.5-14.3 7.8-5.4 1.3-10.9 2-16.7 2s-11.3-.6-16.7-1.8-10.2-3.6-14.3-7.2c-4.2-3.6-7.5-8.8-10-15.5s-3.7-15.4-3.7-26.1V424.9h28.3v111zm102.4-71.8v14.1h.4c2.9-5.9 6.6-10.3 11.2-13s9.8-4.1 15.7-4.1c8.6 0 15.3 2.7 19.9 8 4.6 5.4 7 14.1 7 26.1v89h-27.1v-82.7c0-6.2-.9-10.6-2.8-13-1.8-2.5-4.8-3.7-8.8-3.7-9.6 0-14.3 6.6-14.3 19.8v79.6h-27.1v-120h25.9zm98.4-41v26.3H216v-26.3zm0 41v120H216v-120zm94.3 0-26.5 120h-31.4l-27.3-120h28.3l15.1 85.9h.4l14.3-85.9zm31.2 74.3c0 3.6.2 7 .7 10.4.5 3.3 1.2 6.3 2.3 8.9 1 2.6 2.4 4.7 4.1 6.2 1.7 1.6 3.8 2.3 6.3 2.3 4.6 0 7.9-1.9 10-5.6s3.5-9.4 4.3-17h24.4c-.5 14-3.8 24.6-9.8 31.9s-15.5 10.9-28.5 10.9c-9.8 0-17.5-1.9-23-5.6s-9.6-8.6-12.2-14.7-4.2-12.9-4.8-20.5-.9-15.2-.9-22.7c0-8 .5-15.8 1.5-23.2s2.9-14.1 5.9-19.8c2.9-5.8 7.2-10.4 12.7-13.8s12.8-5.1 22-5.1c7.9 0 14.3 1.4 19.4 4.3 5 2.9 9 7 11.9 12.3s4.8 11.7 5.9 19.2c1 7.5 1.6 15.9 1.6 25.1v6.9h-53.6v9.6zm27-40c-.4-3.5-1.1-6.5-2.1-8.9-1-2.5-2.4-4.3-4.1-5.6-1.8-1.3-4-1.9-6.8-1.9s-5 .7-6.8 2.1-3.2 3.3-4.2 5.6-1.8 4.9-2.3 7.7-.7 5.7-.7 8.5v4.7h27.7c-.1-4.7-.3-8.8-.7-12.2m64.8-34.3v16.1h.4c2.8-5.8 6.1-10.4 10-13.9s8.7-5.2 14.3-5.2c.8 0 1.6 0 2.5.1.8.1 1.7.2 2.5.3v29.4c-1.4-.1-2.8-.3-4.2-.3-1.4-.1-2.8-.1-4.2-.1-2.4 0-4.7.4-7.1 1.1s-4.5 2-6.5 3.7-3.5 3.9-4.7 6.7-1.8 6.1-1.8 10.1v72h-27.1v-120zm57.4 84.8q0 7.8 3.6 12.6t10.5 4.8c4.2 0 7.5-1.2 10-3.6s3.7-5.9 3.7-10.7c0-3.9-1-6.8-2.9-8.8q-3-3-6.9-4.8l-19.1-7.8c-7.5-3-13.1-7.2-16.9-12.6s-5.7-12.4-5.7-20.9c0-4.9.7-9.6 2.2-13.9 1.4-4.4 3.7-8.2 6.9-11.5 3.1-3.3 7.2-5.9 12.1-7.8s10.8-2.9 17.8-2.9c12.3 0 21.4 3 27.3 8.9s8.8 14.4 8.8 25.2v4.9h-24.4c0-6.2-.9-10.8-2.7-13.7s-4.9-4.3-9.3-4.3c-3.4 0-6.4 1.1-8.9 3.2-2.6 2.2-3.8 5.4-3.8 9.7 0 3 .8 5.7 2.5 8q2.4 3.6 9.3 6l16.3 6.2c8.5 3.3 14.5 7.5 18.1 12.8 3.5 5.3 5.3 12.5 5.3 21.5 0 6.4-1 11.9-2.9 16.6-2 4.7-4.7 8.6-8.2 11.7s-7.6 5.4-12.4 6.7-10.1 2-15.8 2c-7.6 0-13.9-.8-19-2.5-5-1.6-9-4.1-12-7.4-2.9-3.3-5-7.2-6.2-11.9s-1.8-9.9-1.8-15.7v-4.2h24.4v4.2zm93.5-125.8v26.3h-27.1v-26.3zm0 41v120h-27.1v-120zm50.1-34.4v34.4h15.7v21h-15.7V550c0 4.8.6 8.1 1.9 10.1q1.8 3 7.8 3c1 0 2.1 0 3.1-.1s2-.2 2.9-.3v21.4q-4.5 0-8.7.3c-2.8.2-5.8.3-8.9.3q-7.8 0-12.9-1.2c-3.3-.8-5.9-2.5-7.7-4.9-1.8-2.5-3-5.7-3.6-9.7-.7-4-1-9.1-1-15.2V485h-13.8v-21h13.8v-34.3zm23 68.3c0-7 1-12.8 2.9-17.5 2-4.7 4.6-8.5 8-11.4 3.3-2.9 7.3-5 11.8-6.2 4.5-1.3 9.3-1.9 14.4-1.9 8.1 0 14.7.9 19.6 2.7 5 1.8 8.8 4.3 11.6 7.6s4.6 7.2 5.6 11.7 1.5 9.5 1.5 14.8v63.1c0 5.7.2 10 .7 13.2.5 3.1 1.3 6.5 2.7 10h-25.9c-.9-1.9-1.6-4-2.1-6.1-.5-2.2-.9-4.3-1.3-6.4h-.4c-3.1 6.2-6.8 10.3-10.9 12.2s-9.5 2.8-16 2.8c-4.7 0-8.7-.9-12-2.8s-5.9-4.4-7.9-7.7-3.4-6.9-4.3-11-1.4-8.1-1.4-12.2c0-5.6.5-10.5 1.6-14.6 1-4.1 2.7-7.6 4.8-10.5s4.9-5.3 8.3-7.2c3.3-1.9 7.4-3.6 12.1-5.1l15.3-4.7c4.1-1.2 6.9-2.8 8.4-4.9 1.6-2.1 2.4-5.1 2.4-9.1 0-4.6-1-8.2-2.8-10.8-1.9-2.6-5.1-3.9-9.7-3.9-4.2 0-7.3 1.4-9.4 4.2s-3.1 6.6-3.1 11.4v3.3h-24.4v-3zm43.6 30q-3.15 1.5-5.7 2.1c-5.5 1.3-9.4 3.6-11.8 6.7s-3.5 7.4-3.5 12.7c0 4.6.8 8.6 2.4 11.8 1.6 3.3 4.2 4.9 7.9 4.9 1.8 0 3.7-.3 5.7-1s3.8-1.7 5.4-3.2 3-3.4 4-5.8 1.6-5.2 1.6-8.5v-23.6q-2.85 2.55-6 3.9m75.1-63.9v16.1h.4c2.8-5.8 6.1-10.4 10-13.9s8.7-5.2 14.3-5.2c.8 0 1.6 0 2.5.1.8.1 1.7.2 2.5.3v29.4c-1.4-.1-2.8-.3-4.2-.3-1.4-.1-2.8-.1-4.2-.1-2.4 0-4.7.4-7.1 1.1s-4.5 2-6.5 3.7-3.5 3.9-4.7 6.7-1.8 6.1-1.8 10.1v72h-27.1v-120zm65.6-41v26.3h-27.1v-26.3zm0 41v120h-27.1v-120zm15.7 32.8c1.4-7.9 3.8-14.5 7.1-19.7q4.95-7.95 12.9-12c5.3-2.7 11.8-4.1 19.6-4.1 8.1-.1 14.9 1.1 20.2 3.7 5.4 2.6 9.6 6.6 12.8 11.9 3.1 5.4 5.4 12 6.7 19.8 1.3 7.9 2 17.1 2 27.7 0 10.3-.7 19.3-2.2 27.2-1.4 7.9-3.8 14.5-7.1 19.7q-4.95 7.95-12.9 11.7c-5.3 2.5-11.8 3.8-19.5 3.8-8.1.1-14.9-1-20.2-3.5-5.4-2.5-9.6-6.3-12.8-11.6-3.1-5.3-5.4-11.9-6.7-19.8-1.3-8-2-17.1-2-27.5-.1-10.3.7-19.4 2.1-27.3m25.3 44.2c.3 5.2.9 9.7 1.9 13.4s2.5 6.6 4.4 8.7c2 2.1 4.6 3.1 7.9 3.1 5.5 0 9.3-3.3 11.4-9.8s3.1-17.3 3.1-32.3-1.1-25.8-3.1-32.3c-2.1-6.5-5.9-9.8-11.4-9.8-3.3 0-5.9 1-7.9 3.1s-3.4 5-4.4 8.7-1.6 8.2-1.9 13.4-.4 10.9-.4 17c.1 5.9.2 11.6.4 16.8M38.6 717c0 3.7.3 7.1.8 10.1s1.5 5.6 2.9 7.7 3.4 3.7 5.8 4.9 5.5 1.8 9.1 1.8q6.45 0 11.7-4.8c3.5-3.2 5.2-8.1 5.2-14.8 0-3.6-.4-6.7-1.3-9.3s-2.3-4.9-4.2-7q-3-3.15-7.8-5.7c-3.2-1.7-7.2-3.5-11.9-5.2-6.3-2.4-11.7-5-16.3-7.8s-8.4-6.1-11.5-9.9-5.3-8.2-6.8-13.2c-1.4-5-2.2-10.7-2.2-17.3 0-15.8 3.9-27.5 11.6-35.2s18.3-11.6 31.8-11.6c6.3 0 12.1.8 17.4 2.3 5.3 1.6 9.9 4.1 13.8 7.6s6.9 8 9 13.4c2.2 5.4 3.2 11.9 3.2 19.5v4.5H72c0-7.6-1.2-13.4-3.5-17.5-2.4-4.1-6.3-6.1-11.8-6.1-3.1 0-5.8.5-7.9 1.6-2.1 1-3.8 2.4-5 4.1s-2.1 3.7-2.6 5.9-.7 4.5-.7 6.9c0 4.9.9 9 2.8 12.4 1.8 3.3 5.8 6.4 11.8 9.3l21.8 10.7q8.1 4.05 13.2 8.4c3.4 2.9 6.1 6 8.2 9.4 2 3.3 3.4 7 4.2 11s1.2 8.5 1.2 13.4c0 16.8-4.3 29-12.9 36.7s-20.5 11.5-35.9 11.5c-16 0-27.4-3.9-34.3-11.8S10.3 733.7 10.3 719v-6.5h28.3zm76.2-41.1c0-7 1-12.8 2.9-17.5 2-4.7 4.6-8.5 8-11.4 3.3-2.9 7.3-5 11.8-6.2 4.5-1.3 9.3-1.9 14.4-1.9 8.1 0 14.7.9 19.6 2.7 5 1.8 8.8 4.3 11.6 7.6s4.6 7.2 5.6 11.7 1.5 9.5 1.5 14.8v63.1c0 5.7.2 10 .7 13.2.5 3.1 1.3 6.5 2.7 10h-25.9c-.9-1.9-1.6-4-2.1-6.1-.5-2.2-.9-4.3-1.3-6.4h-.4c-3.1 6.2-6.8 10.3-10.9 12.2s-9.5 2.8-16 2.8c-4.7 0-8.7-.9-12-2.8s-5.9-4.4-7.9-7.7-3.4-6.9-4.3-11-1.4-8.1-1.4-12.2c0-5.6.5-10.5 1.6-14.6 1-4.1 2.7-7.6 4.8-10.5 2.2-2.9 4.9-5.3 8.3-7.2s7.4-3.6 12.1-5.1l15.3-4.7c4.1-1.2 6.9-2.8 8.4-4.9 1.6-2.1 2.4-5.1 2.4-9.1 0-4.6-1-8.2-2.8-10.8-1.9-2.6-5.1-3.9-9.7-3.9-4.2 0-7.3 1.4-9.4 4.2s-3.1 6.6-3.1 11.4v3.3h-24.4v-3zm43.6 30q-3.15 1.5-5.7 2.1c-5.5 1.3-9.4 3.6-11.8 6.7s-3.5 7.4-3.5 12.7c0 4.6.8 8.6 2.4 11.8 1.6 3.3 4.2 4.9 7.9 4.9 1.8 0 3.7-.3 5.7-1s3.8-1.7 5.4-3.2 3-3.4 4-5.8 1.6-5.2 1.6-8.5V702q-2.85 2.55-6 3.9m75.1-63.9v14.1h.4c2.9-5.9 6.6-10.3 11.2-13s9.8-4.1 15.7-4.1c8.6 0 15.3 2.7 19.9 8 4.6 5.4 7 14.1 7 26.1v89h-27.1v-82.7c0-6.2-.9-10.6-2.8-13-1.8-2.5-4.8-3.7-8.8-3.7-9.6 0-14.3 6.6-14.3 19.8V762h-27.1V642zm194.7-39.2v26.3h-50.1v37.5h47.2v26.3h-47.2V762h-28.3V602.8zM460 642v16.1h.4c2.8-5.8 6.1-10.4 10-13.9s8.7-5.2 14.3-5.2c.8 0 1.6 0 2.5.1.8.1 1.7.2 2.5.3v29.4c-1.4-.1-2.8-.3-4.2-.3-1.4-.1-2.8-.1-4.2-.1-2.4 0-4.7.4-7.1 1.1s-4.5 2-6.5 3.7-3.5 3.9-4.7 6.7-1.8 6.1-1.8 10.1v72h-27.1V642zm37.3 33.9c0-7 1-12.8 2.9-17.5 2-4.7 4.6-8.5 8-11.4s7.3-5 11.8-6.2c4.5-1.3 9.3-1.9 14.4-1.9 8.1 0 14.7.9 19.6 2.7 5 1.8 8.8 4.3 11.6 7.6s4.6 7.2 5.6 11.7 1.5 9.5 1.5 14.8v63.1c0 5.7.2 10 .7 13.2.5 3.1 1.3 6.5 2.7 10h-25.9c-.9-1.9-1.6-4-2.1-6.1-.5-2.2-.9-4.3-1.3-6.4h-.4c-3.1 6.2-6.8 10.3-10.9 12.2s-9.5 2.8-16 2.8c-4.7 0-8.7-.9-12-2.8s-5.9-4.4-7.9-7.7-3.4-6.9-4.3-11-1.4-8.1-1.4-12.2c0-5.6.5-10.5 1.6-14.6 1-4.1 2.7-7.6 4.8-10.5 2.2-2.9 4.9-5.3 8.3-7.2s7.4-3.6 12.1-5.1l15.3-4.7c4.1-1.2 6.9-2.8 8.4-4.9 1.6-2.1 2.4-5.1 2.4-9.1 0-4.6-1-8.2-2.8-10.8-1.9-2.6-5.1-3.9-9.7-3.9-4.2 0-7.3 1.4-9.4 4.2s-3.1 6.6-3.1 11.4v3.3h-24.4v-3zm43.7 30q-3.15 1.5-5.7 2.1c-5.5 1.3-9.4 3.6-11.8 6.7s-3.5 7.4-3.5 12.7c0 4.6.8 8.6 2.4 11.8 1.6 3.3 4.2 4.9 7.9 4.9 1.8 0 3.7-.3 5.7-1s3.8-1.7 5.4-3.2 3-3.4 4-5.8 1.6-5.2 1.6-8.5V702c-2 1.7-3.9 3-6 3.9m75-63.9v14.1h.4c2.9-5.9 6.6-10.3 11.2-13s9.8-4.1 15.7-4.1c8.6 0 15.3 2.7 19.9 8 4.6 5.4 7 14.1 7 26.1v89h-27.1v-82.7c0-6.2-.9-10.6-2.8-13-1.8-2.5-4.8-3.7-8.8-3.7-9.6 0-14.3 6.6-14.3 19.8V762h-27.1V642zm120.8 34.6c-.3-2.8-.9-5.4-1.8-7.7s-2.1-4.2-3.6-5.6q-2.4-2.1-6.3-2.1c-3.3 0-6 .9-8.1 2.6s-3.7 4.2-4.7 7.6c-1 3.3-1.8 7.6-2.2 12.7s-.6 11.2-.6 18.2c0 7.4.2 13.8.6 19.1s1.1 9.6 2.2 13c1 3.4 2.5 5.9 4.4 7.5s4.4 2.3 7.4 2.3c4.6 0 7.9-2.2 10-6.7s3.1-11.6 3.1-21.4h25.9q0 23.7-9.3 36c-6.2 8.3-16.5 12.4-30.9 12.4-6.8 0-12.7-.9-17.8-2.8-5-1.9-9.2-5.2-12.6-10-3.3-4.8-5.9-11.3-7.6-19.4s-2.6-18.2-2.6-30.2c0-12.3 1-22.6 3.1-30.7s5-14.6 8.8-19.4 8.3-8.2 13.6-10.1c5.2-1.9 11-2.9 17.3-2.9 12.6 0 22 4.2 28.4 12.5s9.5 19.6 9.5 33.9h-25.9c.1-3.1 0-6-.3-8.8m66.7-75.6v26.3h-27.1V601zm0 41v120h-27.1V642zm36.9 84.8q0 7.8 3.6 12.6t10.5 4.8c4.2 0 7.5-1.2 10-3.6s3.7-5.9 3.7-10.7c0-3.9-1-6.8-2.9-8.8q-3-3-6.9-4.8l-19.1-7.8c-7.5-3-13.1-7.2-16.9-12.6s-5.7-12.4-5.7-20.9c0-4.9.7-9.6 2.2-13.9 1.4-4.4 3.7-8.2 6.9-11.5 3.1-3.3 7.2-5.9 12.1-7.8s10.8-2.9 17.8-2.9c12.3 0 21.4 3 27.3 8.9s8.8 14.3 8.8 25.2v4.9h-24.4c0-6.2-.9-10.8-2.7-13.7s-4.9-4.3-9.3-4.3c-3.4 0-6.4 1.1-8.9 3.2-2.6 2.2-3.8 5.4-3.8 9.7 0 3 .8 5.7 2.5 8q2.4 3.6 9.3 6l16.3 6.2c8.5 3.3 14.5 7.5 18.1 12.8 3.5 5.3 5.3 12.5 5.3 21.5 0 6.4-1 11.9-2.9 16.6-2 4.7-4.7 8.6-8.2 11.7s-7.6 5.4-12.4 6.7-10.1 2-15.8 2c-7.6 0-13.9-.8-19-2.5-5-1.6-9-4.1-12-7.4-2.9-3.3-5-7.2-6.2-11.9s-1.8-9.9-1.8-15.7v-4.2h24.4v4.2zm115.8-50.2c-.3-2.8-.9-5.4-1.8-7.7s-2.1-4.2-3.6-5.6q-2.4-2.1-6.3-2.1c-3.3 0-6 .9-8.1 2.6s-3.7 4.2-4.7 7.6c-1 3.3-1.8 7.6-2.2 12.7s-.6 11.2-.6 18.2c0 7.4.2 13.8.6 19.1s1.1 9.6 2.2 13c1 3.4 2.5 5.9 4.4 7.5s4.4 2.3 7.4 2.3c4.6 0 7.9-2.2 10-6.7s3.1-11.6 3.1-21.4h25.9q0 23.7-9.3 36c-6.2 8.3-16.5 12.4-30.9 12.4-6.8 0-12.7-.9-17.8-2.8-5-1.9-9.2-5.2-12.6-10-3.3-4.8-5.9-11.3-7.6-19.4s-2.6-18.2-2.6-30.2c0-12.3 1-22.6 3.1-30.7s5-14.6 8.8-19.4 8.3-8.2 13.6-10.1c5.2-1.9 11-2.9 17.3-2.9 12.6 0 22 4.2 28.4 12.5s9.5 19.6 9.5 33.9h-25.9c.2-3.1 0-6-.3-8.8m37.3-1.8c1.4-7.9 3.8-14.5 7.1-19.7q4.95-7.95 12.9-12c5.3-2.7 11.8-4.1 19.6-4.1 8.1-.1 14.9 1.1 20.2 3.7 5.4 2.6 9.6 6.6 12.8 11.9 3.1 5.4 5.4 12 6.7 19.8 1.3 7.9 2 17.1 2 27.7 0 10.3-.7 19.3-2.2 27.2-1.4 7.9-3.8 14.5-7.1 19.7q-4.95 7.95-12.9 11.7c-5.3 2.5-11.8 3.8-19.5 3.8-8.1.1-14.9-1-20.2-3.5-5.4-2.5-9.6-6.3-12.8-11.6-3.1-5.3-5.4-11.9-6.7-19.8-1.3-8-2-17.1-2-27.5q-.15-15.45 2.1-27.3m25.3 44.2c.3 5.2.9 9.7 1.9 13.4s2.5 6.6 4.4 8.7c2 2.1 4.6 3.1 7.9 3.1 5.5 0 9.3-3.3 11.4-9.8s3.1-17.3 3.1-32.3-1.1-25.8-3.1-32.3c-2.1-6.5-5.9-9.8-11.4-9.8-3.3 0-5.9 1-7.9 3.1s-3.4 5-4.4 8.7-1.6 8.2-1.9 13.4-.4 10.9-.4 17c0 5.9.1 11.6.4 16.8" style="fill:currentColor;fill-rule:nonzero" transform="translate(-10.3 -245.2)"/>
</svg>