<?xml version="1.0" encoding="UTF-8" standalone="no"?>
<svg width="100%" height="100%" viewBox="0 0 1000 1000" version="1.1" xmlns="http://www.w3.org/2000/svg" xmlns:xlink="http://www.w3.org/1999/xlink" xml:space="preserve" xmlns:serif="http://www.serif.com/" style="fill-rule:evenodd;clip-rule:evenodd;stroke-linejoin:round;stroke-miterlimit:2;">
    <rect id="Artboard1" x="0" y="0" width="1000" height="1000" style="fill:none;"/>
    <g id="Artboard11" serif:id="Artboard1">
        <g transform="matrix(1.666667,0,0,1.666667,0,0)">
            <path d="M560.094,236.449C559.499,240.833 555.684,268.952 548.67,290.554C543.01,307.983 524.594,336.727 509.647,355.614C459.71,418.717 410.643,456.639 374.43,485.408C357.993,498.466 307.148,534.498 304.436,535.13C301.876,535.726 241.238,496.578 197.225,461.854C88.367,375.97 63.676,326.592 48.945,284.348C43.066,265.54 33.798,234.519 36.906,194.524C43.844,105.228 124.272,71.155 129.61,68.756C210.909,32.219 296.797,87.35 298.482,87.597C301.278,88.006 326.83,67.492 371.523,58.614C381.623,56.607 443.37,44.341 497.653,84.282C562.374,131.903 563.408,195.627 560.094,236.449Z" style="fill:rgb(254,27,0);"/>
            <path d="M391.5,339.971C380.931,340.184 377.377,340.658 378.423,337.473C379.003,335.708 394.469,324.929 396.205,320.383C400.999,307.829 413.294,254.325 406.345,244.607C395.431,229.344 386.462,277.401 374.569,275.141C365.112,273.344 365.697,260.377 351.876,247.107C351.559,246.804 339.996,234.513 338.327,245.475C337.874,248.449 337.192,252.925 354.958,279.199C357.023,282.253 357.107,282.237 357.085,282.519C356.975,283.951 356.155,283.26 339.503,283.64C339.197,283.647 336.183,283.716 335.808,284.632C334.951,286.728 338.919,311.11 355.596,330.419C359.442,334.872 361.659,336.287 360.628,339.545C360.094,341.233 359.339,340.86 329.501,340.366C324.779,340.288 324.345,340.258 321.967,336.22C321.748,335.848 321.127,334.603 319.71,332.374C312.476,321.001 311.165,314.49 306.41,317.388C305.114,318.178 291.995,339.74 290.472,340.45C289.116,341.082 289.034,340.812 258.5,340.811C257.689,340.811 253.69,341.543 254.069,337.466C254.42,333.686 262.369,330.456 278.742,302.637C280.015,300.474 287.681,286.288 286.378,284.603C285.167,283.036 266.249,284.45 265.729,284.094C264.485,283.24 265.592,282.827 278.883,259.725C281.407,255.34 286.03,250.357 282.534,243.481C278.335,235.222 267.109,251.568 261.361,258.385C257.874,262.521 261.359,273.07 249.531,275.644C244.88,276.656 235.269,274.69 232.395,261.523C232.059,259.982 230.655,253.549 222.598,244.416C222.028,243.769 218.648,239.938 212.514,240.616C205.269,241.417 207.221,258.371 207.875,277.484C208.285,289.482 210.799,323.8 215.665,329.353C220.494,334.863 226.529,338.33 223.458,340.416C222.812,340.854 219.25,340.482 193.508,340.099C187.493,340.009 187.879,338.529 184.888,333.275C183.672,331.138 182.113,326.134 177.442,327.257C174.267,328.022 172.193,339.361 168.567,339.926C166.844,340.194 137.226,340.122 134.5,340.115C131.068,340.107 129.796,339.894 130.669,336.551C130.969,335.404 142.603,326.844 143.813,318.556C150.742,271.085 157.971,255.801 150.598,241.445C148.119,236.618 140.88,235.271 137.731,246.562C135.959,252.921 133.91,268.959 124.54,269.851C114.723,270.785 118.286,237.391 129.762,221.686C135.185,214.265 136.092,215.119 142.298,208.319C161.882,186.862 169.566,183.855 167.236,178.618C166.033,175.915 159.87,179.932 147.438,165.553C144.377,162.012 144.943,161.089 140.406,159.819C132.596,157.633 125.639,145.661 136.233,139.069C140.493,136.417 133.415,124.368 149.939,105.919C154.27,101.083 173.793,83.229 201.374,94.806C219.359,102.355 222.572,110.909 223.906,113.275C231.903,127.448 228.718,137.314 230.857,139.079C231.919,139.955 234.024,140.608 235.332,145.534C236.165,148.671 234.707,153.506 229.35,156.219C221.305,160.293 221.379,168.55 207.411,176.336C200.836,180.002 197.594,177.673 197.745,183.485C197.823,186.508 203.323,187.43 216.588,203.429C222.551,210.621 229.958,225.558 240.152,236.813C240.671,237.386 244.698,241.832 249.464,239.438C250.681,238.826 263.851,221.714 271.836,211.766C275.352,207.386 277.311,198.197 293.578,192.745C296.713,191.694 297.39,191.829 297.698,188.522C298.15,183.672 298.722,181.313 296.452,180.648C277.224,175.016 273.477,168.662 268.199,158.647C265.591,153.697 251.596,158.899 250.881,155.383C248.493,143.64 251.536,114.413 280.767,97.962C283.143,96.624 290.332,92.578 314.511,93.16C335.896,93.674 346.075,98.813 360.745,121.35C370.093,135.711 371.797,156.245 368.483,157.458C366.087,158.334 353.012,157.41 351.685,158.703C348.368,161.931 344.442,179.903 324.524,181.755C321.219,182.062 321.764,188.72 323.363,189.695C324.558,190.424 344.413,198.064 354.359,217.572C356.945,222.642 357.227,222.461 369.342,238.614C369.648,239.022 371.653,243.5 376.535,242.753C380.001,242.223 393.63,220.896 395.111,217.32C396.234,214.606 397.83,207.556 409.402,198.372C417.823,191.689 424.534,191.873 424.826,188.546C425.222,184.053 425.309,182.926 422.668,182.016C399.444,174.013 394.592,162.55 389.39,160.838C388.499,160.545 383.527,159.989 381.627,154.454C380.364,150.776 382.439,146.477 384.748,144.865C388.949,141.933 385.984,140.113 388.265,128.455C389.196,123.693 391.847,102.413 421.466,94.37C444.523,88.108 470.839,105.05 476.545,120.482C482.552,136.728 477.845,140.162 482.339,144.665C485.502,147.835 488.963,157.425 479.566,160.684C472.784,163.036 473.749,164.488 468.338,169.318C452.935,183.069 444.463,180.623 444.089,184.462C443.54,190.093 446.087,191.935 446.622,192.322C458.267,200.745 466.013,204.405 484.821,234.303C503.711,264.33 494.613,275.435 487.78,269.194C478.973,261.149 473.754,242.626 466.572,241.185C465.013,240.872 458.008,237.988 456.662,252.514C456.658,252.559 458.576,280.994 459.371,288.513C463.785,330.246 472.342,327.848 481.081,337.854C481.259,338.058 483.768,340.931 479.508,340.853C476.383,340.796 442.633,340.181 440.458,339.712C436.519,338.863 435.527,328.11 429.632,329.881C427.288,330.586 426.445,339.029 423.538,339.682C421.037,340.243 421.006,339.833 391.5,339.971Z" style="fill:rgb(255,254,254);"/>
            <path d="M394.85,383.5C394.849,389.33 395.408,393.447 393.43,394.188C393.36,394.214 387.016,394.525 386.222,393.921C385.164,393.115 385.335,392.805 385.331,359.5C385.331,356.376 385.332,355.509 388.5,355.503C402.053,355.479 412.9,353.55 412.742,366.503C412.645,374.482 406.991,376.617 406.937,376.807C406.867,377.05 407.1,377.293 407.112,377.546C407.168,378.728 408.612,378.975 410.068,381.737C410.467,382.494 410.606,382.757 414.209,391.611C415.601,395.031 413.214,394.274 409.5,394.259C409.059,394.257 405.012,394.994 403.783,392.368C402.04,388.645 398.212,376.17 395.256,379.268C394.647,379.905 394.934,380.017 394.85,383.5Z" style="fill:rgb(255,253,253);"/>
            <path d="M358.152,375.506C358.181,375.955 357.692,387.463 366.455,386.235C370.552,385.661 375.142,380.444 367.51,380.245C363.126,380.131 365.05,373.947 365.222,373.395C365.516,372.45 365.791,371.564 377.528,372.19C380.441,372.346 379.704,376.061 379.696,383.5C379.691,387.919 380.629,389.117 373.71,392.911C366.765,396.721 348.021,397.768 348.762,373.509C349.468,350.394 371.527,352.761 376.155,358.787C376.566,359.323 380.938,365.413 377.429,366.285C372.572,367.491 371.408,368.532 369.187,365.729C366.405,362.216 362.69,363.752 361.57,364.595C357.703,367.503 358.177,374.901 358.152,375.506Z" style="fill:rgb(255,254,253);"/>
            <path d="M449.5,387.876C446.339,387.893 446.2,386.88 443.359,388.293C442.536,388.703 442.814,388.895 441.7,392.572C440.867,395.323 432.648,394.449 432.36,393.582C431.49,390.961 432.604,391.071 433.383,388.465C435.006,383.034 442.257,358.22 442.496,357.499C443.748,353.721 453.108,355.979 453.115,355.985C454.123,356.727 464.522,392.61 464.239,393.409C463.78,394.704 457.563,394.256 457.504,394.256C453.972,394.226 454.812,392.77 453.743,389.4C452.958,386.924 452.084,387.981 449.5,387.876Z" style="fill:rgb(255,253,253);"/>
            <path d="M271.5,387.876C270.835,387.883 266.361,387.204 265.673,389.56C264.757,392.698 265.735,394.056 262.485,394.246C255.823,394.635 255.653,394.041 255.498,393.501C255.127,392.202 265.745,356.905 266.289,356.319C267.023,355.528 268.533,355.365 274.499,355.518C277.162,355.586 276.885,356.651 281.611,372.467C287.697,392.835 288.174,393.844 286.433,394.227C286.119,394.296 279.831,394.276 279.552,394.193C276.497,393.293 278.379,388.085 274.486,387.882C273.492,387.83 272.494,387.928 271.5,387.876Z" style="fill:rgb(255,253,253);"/>
            <path d="M180.5,377.901C176.538,378.181 176.334,377.818 175.744,378.662C175.521,378.981 175.156,379.502 175.385,383.512C175.567,386.721 177.309,385.133 189.502,385.47C192.489,385.553 191.768,390.682 191.653,392.523C191.517,394.683 189.921,394.262 172.5,394.259C167.838,394.258 165.924,395.153 165.923,390.5C165.918,356.778 165.679,355.896 167.51,355.554C168.002,355.463 189.217,355.492 189.495,355.536C192.053,355.94 191.211,361.982 190.938,362.718C190.373,364.238 186.038,363.792 181.5,363.797C176.496,363.801 174.257,363.627 175.454,368.512C175.985,370.68 176.966,369.637 187.49,369.924C190.34,370.001 190.161,371.735 189.989,375.53C189.842,378.781 186.213,377.899 180.5,377.901Z" style="fill:rgb(255,252,252);"/>
            <path d="M334.5,377.901C332.481,378.066 332.536,377.75 330.537,377.914C330.438,377.923 330.076,377.952 329.363,378.322C328.32,378.863 328.636,383.822 328.835,384.372C329.577,386.425 341.421,385.075 343.492,385.535C345.808,386.048 344.901,393.149 344.556,393.54C343.922,394.257 338.988,394.259 338.5,394.259C320.565,394.265 319.586,394.654 319.233,392.544C319.171,392.173 319.207,357.602 319.214,357.467C319.331,354.879 322.948,355.504 323.5,355.503C343.092,355.483 343.248,355.457 343.894,356.123C344.524,356.773 344.451,361.065 344.444,361.497C344.381,365.221 342.322,363.408 330.532,363.814C330.134,363.828 327.889,363.906 328.733,368.452C329.148,370.689 334.812,369.815 340.495,369.923C344.342,369.996 343.34,371.663 343.282,375.492C343.232,378.773 339.008,377.9 334.5,377.901Z" style="fill:rgb(255,254,254);"/>
            <path d="M158.935,374.5C158.677,377.259 159.295,378.376 156.497,378.413C152.65,378.463 147.317,377.525 147.2,380.47C146.75,391.816 148.834,394.233 144.496,394.258C144.151,394.26 137.933,395.105 137.751,392.471C137.715,391.951 137.729,357.671 137.74,357.519C137.923,355.024 139.174,355.495 156.5,355.503C157.33,355.503 160.793,354.893 160.916,357.445C160.939,357.92 161.167,362.637 160.378,363.366C158.775,364.849 147.87,362.238 147.233,365.446C146.229,370.501 149.048,370.559 149.496,370.568C149.689,370.572 156.978,370.537 157.472,370.634C159.851,371.104 158.716,372.092 158.935,374.5Z" style="fill:rgb(255,254,254);"/>
            <path d="M228.948,389.5C229.049,392.596 229.255,394.229 226.492,394.257C226.473,394.257 221.023,394.509 220.245,393.809C218.151,391.924 221.278,381.432 218.269,375.621C209.964,359.581 206.99,355.658 209.496,355.486C217.105,354.965 218.021,355.956 218.514,356.488C219.157,357.184 223.481,367.113 223.726,367.178C225.708,367.701 225.136,366.345 229.455,357.477C229.859,356.647 229.605,355.142 238.506,355.455C241.659,355.566 238.63,359.58 234.908,366.714C228.653,378.706 229.045,378.881 229.031,379.474C228.957,382.684 229.126,383.924 228.948,389.5Z" style="fill:rgb(255,253,253);"/>
            <path d="M290.918,387.5C290.917,374.213 290.916,357.638 290.923,357.528C291.143,354.198 299.162,355.413 299.865,356.185C300.836,357.251 300.159,375.196 300.348,382.51C300.429,385.663 304.868,384.684 312.492,384.753C314.193,384.768 315.086,385.382 315.039,387.506C314.945,391.656 314.964,393.18 314.6,393.577C313.512,394.762 313.266,394.384 294.501,394.259C289.804,394.227 290.948,392.2 290.918,387.5Z" style="fill:rgb(255,252,252);"/>
            <path d="M428.042,389.5C427.937,390.48 428.129,391.476 428.024,392.455C427.834,394.237 425.742,394.255 425.493,394.257C420.646,394.299 418.618,395.343 418.593,390.5C418.579,387.861 418.431,359.42 418.604,357.509C418.624,357.29 418.776,355.597 420.502,355.521C425.223,355.313 427.967,354.781 427.979,358.493C428.019,370.84 427.882,381.94 428.042,389.5Z" style="fill:rgb(255,254,254);"/>
            <path d="M394.85,367.5C395.087,364.933 393.934,363.863 396.48,363.388C403.819,362.018 405.707,369.964 399.431,371.069C393.647,372.087 394.855,367.53 394.85,367.5Z" style="fill:rgb(255,28,3);"/>
            <path d="M268.939,375.606C270.536,368.22 270.357,368.182 270.583,367.566C270.943,366.585 271.505,367.403 271.521,367.412C272.21,367.766 272.271,367.734 272.392,368.545C273.751,377.686 274.331,377.633 274.145,378.413C273.883,379.514 270.807,379.436 270.504,379.428C267.266,379.346 268.87,376.117 268.939,375.606Z" style="fill:rgb(255,30,5);"/>
            <path d="M446.08,374.398C447.141,368.756 447.128,368.791 447.226,368.304C447.422,367.329 447.569,367.244 448.566,367.378C449.505,367.504 449.072,367.956 449.449,370.514C449.803,372.907 450.92,377.174 450.929,377.476C451.028,380.786 445.808,379.127 445.78,379.107C444.956,378.5 445.429,378.266 446.08,374.398Z" style="fill:rgb(255,30,5);"/>
            <path d="M300.743,538.118C300.926,538.333 301.297,538.32 301.48,538.534C301.58,538.651 301.564,538.649 302.604,540.082C301.983,539.427 301.363,538.773 300.743,538.118Z" style="fill:rgb(213,212,212);"/>
        </g>
    </g>
</svg>
